<?xml version="1.0" standalone="no"?>
<!DOCTYPE svg PUBLIC "-//W3C//DTD SVG 20010904//EN"
 "http://www.w3.org/TR/2001/REC-SVG-20010904/DTD/svg10.dtd">
<svg version="1.0" xmlns="http://www.w3.org/2000/svg"
 width="182.000000pt" height="182.000000pt" viewBox="0 0 182.000000 182.000000"
 preserveAspectRatio="xMidYMid meet">
<metadata>
Created by potrace 1.14, written by Peter Selinger 2001-2017
</metadata>
<g transform="translate(0.000000,182.000000) scale(0.100000,-0.100000)"
fill="#000000" stroke="none">
<path d="M819 1816 c-2 -2 -26 -6 -53 -9 -107 -13 -293 -95 -381 -167 -163
-134 -272 -316 -310 -514 -45 -234 13 -475 160 -671 80 -105 168 -179 287
-241 327 -167 719 -107 983 151 156 153 239 339 252 565 24 423 -271 794 -695
876 -67 13 -232 20 -243 10z m227 -17 c316 -58 574 -281 662 -574 74 -247 47
-470 -86 -702 -93 -162 -299 -310 -512 -369 -99 -27 -310 -25 -412 4 -126 36
-237 93 -327 169 -121 100 -228 269 -273 428 -32 113 -32 316 0 427 80 282
295 508 557 588 117 35 287 48 391 29z"/>
<path d="M300 1415 c0 -10 10 -15 33 -15 l33 0 0 -235 c0 -129 -4 -236 -8
-236 -8 -1 -36 -5 -59 -8 -5 0 -7 -5 -4 -11 4 -6 70 -10 163 -10 122 -1 161
-4 176 -15 26 -20 42 -19 26 0 -11 14 -10 14 14 5 34 -13 39 -13 31 0 -3 6 2
10 12 10 10 0 24 -12 31 -28 15 -35 49 -52 80 -41 12 5 22 11 22 13 0 3 -6 3
-14 0 -8 -3 -17 0 -22 7 -4 7 -3 10 4 6 5 -4 20 -4 31 1 l22 8 -22 23 c-17 18
-29 22 -54 18 -37 -6 -52 1 -52 24 0 11 7 15 19 11 25 -6 24 22 -2 48 -11 11
-20 33 -20 50 0 43 -24 38 -38 -8 -6 -20 -18 -46 -25 -56 -14 -19 -15 -19 -33
2 -20 24 -34 14 -34 -25 0 -25 1 -25 -55 -28 -66 -3 -66 -4 -64 121 l1 114 50
0 50 0 -7 -40 c-8 -47 10 -84 45 -93 16 -4 19 -3 10 7 -8 10 -5 12 15 8 20 -3
25 0 25 15 0 23 -16 44 -52 66 -31 19 -39 44 -10 32 46 -19 51 -18 47 11 -2
16 -2 23 1 17 10 -23 26 -14 19 10 -10 32 -43 57 -76 57 -26 0 -28 -2 -19 -19
20 -38 13 -47 -37 -45 -27 1 -51 2 -55 3 -11 1 -10 131 1 131 5 0 16 -11 24
-24 15 -22 63 -40 80 -29 4 3 1 16 -7 29 -14 20 -14 23 -1 18 19 -8 20 10 1
25 -20 17 -54 21 -82 11 -22 -9 -24 -7 -24 20 l0 30 71 0 c64 0 73 -3 99 -28
15 -16 34 -47 41 -70 7 -23 18 -42 26 -42 10 0 13 21 13 85 l0 85 -220 0
c-189 0 -220 -2 -220 -15z"/>
<path d="M1238 1342 c-8 -9 -19 -24 -23 -32 -8 -13 -7 -13 10 0 17 14 18 14 6
-8 -6 -12 -9 -27 -6 -32 11 -18 35 -10 76 27 43 39 41 47 -18 57 -21 4 -35 1
-45 -12z"/>
<path d="M792 1281 c-11 -7 -11 -9 2 -14 9 -4 21 -18 26 -32 10 -25 54 -50 70
-40 5 3 5 17 0 33 -10 25 -9 26 5 8 21 -27 20 2 -1 32 -11 16 -25 22 -52 22
-20 0 -43 -4 -50 -9z"/>
<path d="M946 1274 c-9 -8 -16 -22 -16 -31 0 -13 3 -13 18 -2 14 11 15 11 5
-1 -21 -23 -16 -49 8 -45 27 5 59 34 59 52 0 7 7 16 15 19 26 10 5 24 -35 24
-22 0 -45 -7 -54 -16z"/>
<path d="M1180 1243 c-8 -3 -21 -12 -27 -21 -15 -19 -17 -56 -3 -47 6 3 10 -3
10 -14 0 -11 3 -22 8 -24 13 -9 51 30 56 58 3 15 10 33 17 41 9 12 6 14 -17
13 -16 0 -36 -3 -44 -6z"/>
<path d="M910 1187 c0 -10 -9 -31 -21 -46 -16 -22 -19 -36 -14 -61 l7 -32 26
24 c19 18 24 19 19 6 -9 -24 10 -23 23 1 16 32 12 64 -15 96 -19 24 -24 26
-25 12z"/>
<path d="M1210 1133 c-8 -8 -25 -22 -37 -31 -30 -24 -40 -62 -16 -62 11 0 25
6 33 13 12 10 12 9 1 -5 -11 -15 -11 -18 2 -18 18 0 46 26 48 43 2 24 -3 62
-9 68 -4 3 -14 0 -22 -8z"/>
<path d="M892 1015 c-28 -35 -28 -66 -1 -96 l20 -24 -7 25 -7 25 20 -24 c11
-14 25 -21 31 -17 17 10 15 62 -3 80 -8 8 -19 25 -23 37 -8 22 -9 22 -30 -6z"/>
<path d="M1089 1004 c-20 -12 -39 -32 -42 -44 -5 -19 -2 -21 18 -17 14 2 22 0
19 -4 -3 -5 1 -9 9 -9 24 0 38 26 35 63 l-3 34 -36 -23z"/>
<path d="M1157 961 c-49 -47 -51 -95 -3 -69 19 10 20 10 7 -5 -18 -23 1 -21
30 2 16 13 23 29 23 55 0 53 -14 57 -57 17z"/>
<path d="M978 890 c-20 -17 -21 -21 -8 -30 8 -5 24 -7 35 -4 15 4 14 1 -5 -10
-23 -14 -23 -15 -5 -17 47 -3 77 15 89 56 5 18 1 21 -38 23 -32 1 -51 -4 -68
-18z"/>
<path d="M910 869 c0 -6 -10 -24 -21 -41 -17 -24 -20 -35 -12 -61 l9 -31 24
24 c15 15 21 18 17 7 -7 -20 4 -22 21 -5 18 18 14 70 -7 96 -21 24 -31 28 -31
11z"/>
<path d="M1185 832 c-49 -9 -85 -24 -79 -34 4 -7 2 -8 -4 -4 -16 10 -47 -22
-61 -63 -13 -39 2 -106 21 -95 6 4 8 3 5 -2 -7 -13 1 -24 37 -52 15 -12 32
-19 37 -16 5 3 9 1 9 -4 0 -5 25 -21 55 -36 90 -46 119 -87 105 -145 -6 -28
-44 -59 -80 -64 -36 -6 -120 21 -120 38 0 8 -4 15 -8 15 -10 0 -43 90 -37 100
3 5 -4 11 -15 15 -11 3 -20 10 -20 15 0 5 -22 20 -50 33 -42 20 -50 22 -53 8
-5 -26 12 -74 30 -85 24 -14 43 -16 43 -5 0 5 -5 9 -12 9 -6 0 -9 2 -7 5 3 2
15 2 27 -2 20 -5 22 -11 22 -85 0 -59 3 -79 13 -75 6 2 12 11 11 18 -1 8 7 15
17 15 10 0 15 -4 13 -8 -8 -13 103 -39 148 -34 24 3 53 5 66 5 15 1 21 5 16
13 -4 7 -3 8 4 4 28 -17 113 58 96 85 -4 8 -3 9 4 5 12 -7 16 9 12 54 -4 47
-49 108 -71 95 -8 -5 -10 -4 -5 3 4 7 -13 21 -44 37 -27 14 -50 23 -50 21 0
-3 -12 6 -27 20 -15 14 -33 22 -40 19 -9 -3 -11 0 -7 6 4 6 0 15 -7 20 -8 4
-14 26 -14 51 -1 24 -5 50 -10 58 -7 12 -6 13 6 3 11 -9 18 -8 33 3 24 17 68
18 111 3 31 -12 63 -55 69 -93 1 -10 10 -22 19 -28 15 -8 17 -1 17 72 0 61 -3
81 -12 77 -7 -2 -12 -10 -10 -17 2 -8 -3 -10 -15 -5 -56 23 -144 36 -188 27z"/>
<path d="M903 712 c-15 -10 -33 -48 -33 -70 0 -11 9 -30 21 -43 l20 -24 -5 30
c-5 27 -4 28 6 8 6 -12 17 -24 24 -27 19 -7 29 40 15 67 -29 55 -38 65 -48 59z"/>
<path d="M876 544 c-11 -8 -27 -14 -37 -14 -20 0 -34 -16 -44 -49 -7 -23 -5
-24 26 -18 19 3 28 3 22 0 -7 -2 -13 -9 -13 -15 0 -10 39 -2 53 11 13 12 24
65 18 83 -5 15 -8 15 -25 2z"/>
</g>
</svg>
